<mxfile host="drawio-plugin" agent="Mozilla/5.0 (Windows NT 10.0; Win64; x64) AppleWebKit/537.36 (KHTML, like Gecko) Chrome/122.0.0.0 Safari/537.36" modified="2025-09-10T14:12:57.069Z" version="22.1.22" etag="0N-Nfiq0OaeYNN7Smre6" type="embed">
  <diagram name="Página-1" id="REj8kXpIpcty1s5Iyu1u">
    <mxGraphModel dx="743" dy="383" grid="1" gridSize="10" guides="1" tooltips="1" connect="1" arrows="1" fold="1" page="1" pageScale="1" pageWidth="827" pageHeight="1169" math="0" shadow="0">
      <root>
        <mxCell id="0" />
        <mxCell id="1" parent="0" />
        <mxCell id="E7EVq70U3-GfiR7HSH4o-1" value="NGINX" style="rounded=0;whiteSpace=wrap;html=1;" parent="1" vertex="1">
          <mxGeometry x="230" y="320" width="80" height="30" as="geometry" />
        </mxCell>
        <mxCell id="E7EVq70U3-GfiR7HSH4o-2" value="Cliente 1" style="rounded=1;whiteSpace=wrap;html=1;" parent="1" vertex="1">
          <mxGeometry x="40" y="370" width="100" height="40" as="geometry" />
        </mxCell>
        <mxCell id="E7EVq70U3-GfiR7HSH4o-3" value="Cliente 2" style="rounded=1;whiteSpace=wrap;html=1;" parent="1" vertex="1">
          <mxGeometry x="390" y="370" width="100" height="40" as="geometry" />
        </mxCell>
        <mxCell id="E7EVq70U3-GfiR7HSH4o-4" value="Pedido 1" style="rounded=1;whiteSpace=wrap;html=1;" parent="1" vertex="1">
          <mxGeometry x="40" y="430" width="100" height="40" as="geometry" />
        </mxCell>
        <mxCell id="E7EVq70U3-GfiR7HSH4o-5" value="Pedido 2" style="rounded=1;whiteSpace=wrap;html=1;" parent="1" vertex="1">
          <mxGeometry x="390" y="430" width="100" height="40" as="geometry" />
        </mxCell>
        <mxCell id="E7EVq70U3-GfiR7HSH4o-6" value="Pagamento 1" style="rounded=1;whiteSpace=wrap;html=1;" parent="1" vertex="1">
          <mxGeometry x="40" y="490" width="100" height="40" as="geometry" />
        </mxCell>
        <mxCell id="E7EVq70U3-GfiR7HSH4o-7" value="Pagamento 2" style="rounded=1;whiteSpace=wrap;html=1;" parent="1" vertex="1">
          <mxGeometry x="390" y="490" width="100" height="40" as="geometry" />
        </mxCell>
        <mxCell id="E7EVq70U3-GfiR7HSH4o-8" value="Postgress" style="shape=cylinder3;whiteSpace=wrap;html=1;boundedLbl=1;backgroundOutline=1;size=15;" parent="1" vertex="1">
          <mxGeometry x="240" y="530" width="60" height="80" as="geometry" />
        </mxCell>
        <mxCell id="E7EVq70U3-GfiR7HSH4o-10" value="RabbitMQ" style="shape=process;whiteSpace=wrap;html=1;backgroundOutline=1;" parent="1" vertex="1">
          <mxGeometry x="225" y="450" width="90" height="40" as="geometry" />
        </mxCell>
        <mxCell id="E7EVq70U3-GfiR7HSH4o-13" value="" style="endArrow=none;dashed=1;html=1;dashPattern=1 3;strokeWidth=2;rounded=0;exitX=0.5;exitY=0;exitDx=0;exitDy=0;entryX=0;entryY=0.75;entryDx=0;entryDy=0;" parent="1" source="E7EVq70U3-GfiR7HSH4o-2" target="E7EVq70U3-GfiR7HSH4o-1" edge="1">
          <mxGeometry width="50" height="50" relative="1" as="geometry">
            <mxPoint x="175" y="397.5" as="sourcePoint" />
            <mxPoint x="225" y="347.5" as="targetPoint" />
          </mxGeometry>
        </mxCell>
        <mxCell id="E7EVq70U3-GfiR7HSH4o-14" value="" style="endArrow=none;dashed=1;html=1;dashPattern=1 3;strokeWidth=2;rounded=0;exitX=0.5;exitY=0;exitDx=0;exitDy=0;entryX=1;entryY=0.75;entryDx=0;entryDy=0;" parent="1" source="E7EVq70U3-GfiR7HSH4o-3" target="E7EVq70U3-GfiR7HSH4o-1" edge="1">
          <mxGeometry width="50" height="50" relative="1" as="geometry">
            <mxPoint x="170" y="420.5" as="sourcePoint" />
            <mxPoint x="265" y="370" as="targetPoint" />
          </mxGeometry>
        </mxCell>
        <mxCell id="E7EVq70U3-GfiR7HSH4o-15" value="" style="endArrow=none;dashed=1;html=1;dashPattern=1 3;strokeWidth=2;rounded=0;exitX=1;exitY=0.5;exitDx=0;exitDy=0;entryX=0;entryY=0.25;entryDx=0;entryDy=0;" parent="1" source="E7EVq70U3-GfiR7HSH4o-2" target="E7EVq70U3-GfiR7HSH4o-10" edge="1">
          <mxGeometry width="50" height="50" relative="1" as="geometry">
            <mxPoint x="180" y="415" as="sourcePoint" />
            <mxPoint x="280" y="360" as="targetPoint" />
          </mxGeometry>
        </mxCell>
        <mxCell id="E7EVq70U3-GfiR7HSH4o-16" value="" style="endArrow=none;dashed=1;html=1;dashPattern=1 3;strokeWidth=2;rounded=0;exitX=1;exitY=0.5;exitDx=0;exitDy=0;entryX=0;entryY=0.5;entryDx=0;entryDy=0;" parent="1" source="E7EVq70U3-GfiR7HSH4o-4" target="E7EVq70U3-GfiR7HSH4o-10" edge="1">
          <mxGeometry width="50" height="50" relative="1" as="geometry">
            <mxPoint x="210" y="410" as="sourcePoint" />
            <mxPoint x="255" y="452" as="targetPoint" />
          </mxGeometry>
        </mxCell>
        <mxCell id="E7EVq70U3-GfiR7HSH4o-18" value="" style="endArrow=none;dashed=1;html=1;dashPattern=1 3;strokeWidth=2;rounded=0;exitX=1;exitY=0.5;exitDx=0;exitDy=0;entryX=0;entryY=0.5;entryDx=0;entryDy=0;" parent="1" target="E7EVq70U3-GfiR7HSH4o-3" edge="1">
          <mxGeometry width="50" height="50" relative="1" as="geometry">
            <mxPoint x="315" y="465.5" as="sourcePoint" />
            <mxPoint x="360" y="507.5" as="targetPoint" />
          </mxGeometry>
        </mxCell>
        <mxCell id="E7EVq70U3-GfiR7HSH4o-19" value="Visão de Arquitetura" style="text;html=1;align=center;verticalAlign=middle;whiteSpace=wrap;rounded=0;" parent="1" vertex="1">
          <mxGeometry x="50" y="310" width="100" height="30" as="geometry" />
        </mxCell>
        <mxCell id="3" value="" style="endArrow=none;dashed=1;html=1;dashPattern=1 3;strokeWidth=2;rounded=0;entryX=0;entryY=0.25;entryDx=0;entryDy=0;exitX=1;exitY=0.5;exitDx=0;exitDy=0;" edge="1" parent="1" source="E7EVq70U3-GfiR7HSH4o-10" target="E7EVq70U3-GfiR7HSH4o-5">
          <mxGeometry width="50" height="50" relative="1" as="geometry">
            <mxPoint x="320" y="460" as="sourcePoint" />
            <mxPoint x="360" y="430" as="targetPoint" />
          </mxGeometry>
        </mxCell>
        <mxCell id="4" value="" style="endArrow=none;dashed=1;html=1;dashPattern=1 3;strokeWidth=2;rounded=0;exitX=1;exitY=0.5;exitDx=0;exitDy=0;entryX=0;entryY=0.25;entryDx=0;entryDy=0;" edge="1" parent="1" source="E7EVq70U3-GfiR7HSH4o-10" target="E7EVq70U3-GfiR7HSH4o-7">
          <mxGeometry width="50" height="50" relative="1" as="geometry">
            <mxPoint x="335" y="485.5" as="sourcePoint" />
            <mxPoint x="370" y="440" as="targetPoint" />
          </mxGeometry>
        </mxCell>
        <mxCell id="10" value="" style="endArrow=none;dashed=1;html=1;dashPattern=1 3;strokeWidth=2;rounded=0;exitX=1;exitY=0.5;exitDx=0;exitDy=0;entryX=0;entryY=0.75;entryDx=0;entryDy=0;" edge="1" parent="1" source="E7EVq70U3-GfiR7HSH4o-6" target="E7EVq70U3-GfiR7HSH4o-10">
          <mxGeometry width="50" height="50" relative="1" as="geometry">
            <mxPoint x="150" y="460" as="sourcePoint" />
            <mxPoint x="235" y="480" as="targetPoint" />
          </mxGeometry>
        </mxCell>
      </root>
    </mxGraphModel>
  </diagram>
</mxfile>
